<svg width="6" height="12" viewBox="0 0 6 12" fill="none" xmlns="http://www.w3.org/2000/svg">
<path fill-rule="evenodd" clip-rule="evenodd" d="M4.83059 2.12885C4.83059 2.5422 4.66639 2.93862 4.3741 3.2309C4.08182 3.52319 3.6854 3.68739 3.27205 3.68739C2.8587 3.68739 2.46228 3.52319 2.17 3.2309C1.87771 2.93862 1.71351 2.5422 1.71351 2.12885C1.71351 1.7155 1.87771 1.31908 2.17 1.0268C2.46228 0.734515 2.8587 0.570313 3.27205 0.570312C3.6854 0.570313 4.08182 0.734515 4.3741 1.0268C4.66639 1.31908 4.83059 1.7155 4.83059 2.12885ZM5.20141 5.10236C5.45469 5.35559 5.65558 5.65627 5.79259 5.98719C5.92959 6.31811 6.00003 6.67279 5.99988 7.03095V7.8179C5.99988 7.91971 5.95943 8.01735 5.88744 8.08934C5.81545 8.16133 5.71781 8.20177 5.616 8.20177H4.83212L4.48433 10.9833C4.47273 11.0762 4.42763 11.1616 4.35751 11.2235C4.28739 11.2854 4.19707 11.3196 4.10353 11.3196H2.44134C2.34779 11.3196 2.25747 11.2854 2.18735 11.2235C2.11723 11.1616 2.07214 11.0762 2.06054 10.9833L1.71351 8.20101H0.927333C0.825523 8.20101 0.727882 8.16056 0.655892 8.08857C0.583901 8.01658 0.543457 7.91894 0.543457 7.81713V7.03095C0.543626 6.49136 0.703775 5.96394 1.00366 5.51536C1.30354 5.06678 1.72969 4.71718 2.22823 4.51076C2.72677 4.30435 3.27532 4.25038 3.80454 4.35568C4.33375 4.46098 4.81986 4.72082 5.20141 5.10236Z" fill="#12B76A"/>
</svg>
