<svg width="6" height="12" viewBox="0 0 6 12" fill="none" xmlns="http://www.w3.org/2000/svg">
<path d="M1.46704 5.62487L3.28024 3.13173M3.28024 3.13173L3.73353 9.02461L4.18683 3.13173M3.28024 3.13173H4.18683M3.28024 3.13173L2.60029 6.98477H4.86678L4.18683 3.13173M6.00003 5.62487L4.18683 3.13173M3.73353 1.77183C3.85376 1.77183 3.96905 1.72407 4.05406 1.63906C4.13907 1.55405 4.18683 1.43876 4.18683 1.31853C4.18683 1.19831 4.13907 1.08301 4.05406 0.998002C3.96905 0.912992 3.85376 0.865234 3.73353 0.865234C3.61331 0.865234 3.49801 0.912992 3.413 0.998002C3.32799 1.08301 3.28024 1.19831 3.28024 1.31853C3.28024 1.43876 3.32799 1.55405 3.413 1.63906C3.49801 1.72407 3.61331 1.77183 3.73353 1.77183Z" stroke="#F63D68" stroke-linecap="round" stroke-linejoin="round"/>
</svg>
